<svg xmlns="http://www.w3.org/2000/svg" width="620" height="360" viewBox="0 0 620 360"><rect width="620" height="360" fill="#efe3bd"/><g stroke="#3b382e" fill="none" stroke-width="4"><rect x="45" y="42" width="530" height="270"/><path d="M45 116h530M180 42v270M342 116v196M455 116v196"/><rect x="72" y="70" width="56" height="28"/><circle cx="518" cy="78" r="22"/><path d="M205 70h88M205 88h68M375 150h50M375 170h50M375 190h50"/></g><g font-family="Courier New" font-size="15" fill="#3b382e"><text x="62" y="36">ROOF ACCESS LOG / PLAN 7C</text><text x="70" y="91">HATCH</text><text x="201" y="104">tar kettle stain, 1989</text><text x="468" y="84">tank</text><text x="68" y="144">Antenna rail</text><text x="360" y="142">HVAC tags</text><text x="473" y="142">pigeon corner</text><text x="68" y="336">chalk arrows copied before rain: north edge drains slower than shown</text></g><g stroke="#8c2c1f" stroke-width="3"><path d="M130 84 C210 130 230 210 312 245"/><path d="M312 245 l-16 -1M312 245 l-8 -14"/></g></svg>
