<svg xmlns="http://www.w3.org/2000/svg" width="620" height="360" viewBox="0 0 620 360"><rect width="620" height="360" fill="#e8dec0"/><g stroke="#332f27" fill="none" stroke-width="5"><path d="M50 290h520"/><path d="M90 290V98M150 290V65M230 290V122M320 290V44M420 290V82M520 290V136"/><path d="M130 90h40M138 74h24M293 74h54M305 58h30M395 118h50M407 101h26M502 162h36"/><path d="M150 72l-44 218M150 72l70 218M320 48l-96 242M320 48l115 242"/></g><g stroke="#8c2c1f" stroke-width="3" fill="none"><path d="M82 128c65 20 110 20 169 0s121-20 185 0"/><path d="M60 318h148M238 318h78M352 318h142"/></g><g font-family="Courier New" font-size="14" fill="#2b281f"><text x="43" y="34">ANTENNA FARM RAIL - sighted from hatch, bearings approximate</text><text x="78" y="88">FM whip (dead)</text><text x="296" y="35">UHF mast</text><text x="386" y="75">pager yagi</text><text x="498" y="130">unknown</text><text x="52" y="338">red line: cable bundle suspended on reused shoelace + black tape</text></g></svg>
