<svg xmlns="http://www.w3.org/2000/svg" width="620" height="360" viewBox="0 0 620 360"><rect width="620" height="360" fill="#e5dab8"/><g transform="translate(60 42)" font-family="Courier New"><g fill="#f8edcb" stroke="#332f27" stroke-width="2"><path d="M0 0h160v112H0z"/><path d="M205 20h140v116H205z"/><path d="M390 0h130v130H390z"/><path d="M62 170h185v92H62z"/><path d="M302 178h170v82H302z"/></g><g fill="#2d291f" font-size="14"><text x="12" y="25">UNIT R-2</text><text x="12" y="50">belt 4L320</text><text x="12" y="75">filter due: MAY</text><text x="218" y="48">RTU-4</text><text x="218" y="73">compressor amps</text><text x="218" y="98">L1 8.2 / L2 8.0</text><text x="402" y="28">EXHAUST</text><text x="402" y="54">grease fan</text><text x="402" y="82">do not silence</text><text x="78" y="198">2024-10-03: replaced contactor</text><text x="78" y="224">2025-02-16: ice on curb</text><text x="318" y="204">TAG LOST</text><text x="318" y="230">serial taken from rust shadow</text></g><g stroke="#8c2c1f" fill="none" stroke-width="2"><path d="M8 86h144M212 108h126M399 102h113M74 238h160M310 240h150"/><circle cx="145" cy="18" r="8"/><circle cx="328" cy="38" r="8"/><circle cx="505" cy="20" r="8"/></g></g><text x="54" y="334" font-family="Courier New" font-size="14" fill="#2d291f">SERVICE TAG STRING found under hail guard. Grease pencil dates fade toward the river.</text></svg>
