<svg xmlns="http://www.w3.org/2000/svg" width="620" height="360" viewBox="0 0 620 360"><rect width="620" height="360" fill="#e9dfc2"/><g transform="translate(45 42)"><g fill="#faf1d0" stroke="#403a2d" stroke-width="2"><rect width="150" height="110"/><rect x="185" y="0" width="150" height="110"/><rect x="370" y="0" width="150" height="110"/><rect x="0" y="145" width="150" height="110"/><rect x="185" y="145" width="150" height="110"/><rect x="370" y="145" width="150" height="110"/></g><g font-family="Courier New" font-size="13" fill="#2e2a20"><text x="12" y="25">BLU-17-004</text><text x="12" y="50">left leg, blue</text><text x="12" y="75">seen near vent B</text><text x="197" y="25">GRN-09-711</text><text x="197" y="50">green, split ring</text><text x="197" y="75">nested wire scrap</text><text x="382" y="25">RED-22-319</text><text x="382" y="50">red, scuffed</text><text x="382" y="75">returns after storms</text><text x="12" y="170">YEL-00-088</text><text x="12" y="195">yellow, old code</text><text x="12" y="220">noted by elevator</text><text x="197" y="170">ALU-5?3</text><text x="197" y="195">aluminum, partial</text><text x="197" y="220">bread tag decoy</text><text x="382" y="170">NONE</text><text x="382" y="195">no band</text><text x="382" y="220">white tail feather</text></g><g stroke="#8c2c1f" fill="none" stroke-width="2"><circle cx="117" cy="31" r="21"/><circle cx="316" cy="176" r="18"/><path d="M394 236c30 20 62 18 93 0"/></g></g><text x="45" y="330" font-family="Courier New" font-size="14" fill="#2e2a20">PIGEON BAND INDEX copied from roof ledger; questionable digits preserved as question marks.</text></svg>
