<svg xmlns="http://www.w3.org/2000/svg" width="620" height="360" viewBox="0 0 620 360"><rect width="620" height="360" fill="#dcd4b8"/><path d="M0 250h620v110H0z" fill="#b8ad8e"/><g fill="#463f33"><rect x="42" y="180" width="50" height="70"/><rect x="120" y="145" width="38" height="105"/><rect x="174" y="205" width="80" height="45"/><rect x="290" y="118" width="58" height="132"/><rect x="366" y="160" width="34" height="90"/><rect x="438" y="130" width="92" height="120"/><rect x="548" y="200" width="32" height="50"/></g><g stroke="#8c2c1f" stroke-width="2" fill="none"><path d="M310 292L67 180M310 292l72-132M310 292l174-162M310 292l254-92"/><circle cx="310" cy="292" r="9"/><path d="M278 304h64"/></g><g font-family="Courier New" fill="#27231b" font-size="14"><text x="34" y="40">SKYLINE SIGHTLINE BOOK - observer at roof drain 3</text><text x="44" y="174">water tower notch 279°</text><text x="285" y="112">telephone bldg 011°</text><text x="430" y="124">hospital stack 044°</text><text x="428" y="312">chalk mark is actual observer point</text></g><g fill="#efe3bd"><rect x="56" y="197" width="8" height="8"/><rect x="132" y="162" width="8" height="8"/><rect x="304" y="137" width="8" height="8"/><rect x="455" y="148" width="8" height="8"/><rect x="489" y="148" width="8" height="8"/></g></svg>
