<svg xmlns="http://www.w3.org/2000/svg" width="620" height="360" viewBox="0 0 620 360"><rect width="620" height="360" fill="#d9d0b1"/><g fill="#222"><path d="M70 70h180v88H70z"/><path d="M285 58h126v126H285z"/><path d="M445 84h96v72h-96z"/><path d="M104 214h170v72H104z"/><path d="M350 226h142v62H350z"/></g><g fill="none" stroke="#efe3bd" stroke-width="5" stroke-dasharray="9 7"><path d="M87 87h145v54H87z"/><path d="M304 77h88v88h-88z"/><path d="M459 99h68v42h-68z"/><path d="M122 230h132v40H122z"/><path d="M367 241h106v32H367z"/></g><g font-family="Courier New" font-size="14" fill="#2d281d"><text x="54" y="34">TAR PAPER PATCH RUBBING SET - west roof membrane</text><text x="83" y="177">P-3: blister slit, sealed cold</text><text x="289" y="206">P-4: boot collar overlap faces wrong way</text><text x="108" y="308">P-7: gravel embedded in seam</text></g><g stroke="#8c2c1f" fill="none" stroke-width="2"><circle cx="248" cy="157" r="18"/><path d="M260 169l48 32"/><circle cx="420" cy="225" r="15"/></g></svg>
