<svg xmlns="http://www.w3.org/2000/svg" width="720" height="360" viewBox="0 0 720 360">
<rect width="720" height="360" fill="#dbe8c1"/><filter id="blur"><feGaussianBlur stdDeviation=".55"/></filter>
<g stroke="#6b7e5d" opacity=".45"><path d="M0 60h720M0 120h720M0 180h720M0 240h720M0 300h720"/><path d="M60 0v360M120 0v360M180 0v360M240 0v360M300 0v360M360 0v360M420 0v360M480 0v360M540 0v360M600 0v360M660 0v360"/></g>
<g font-family="Courier New" fill="#182015" filter="url(#blur)"><text x="38" y="72" font-size="18">CITY LEDGER ROLL 14 / FRAME 221</text><text x="42" y="116" font-size="13">the word after WHARF may be HOUSE, HORSE, or HOURSE</text><text x="42" y="154" font-size="13">silvering at edge: do not mistake bloom for punctuation</text><text x="42" y="192" font-size="13">operator note: crank backlash eats the left margin</text></g>
<circle cx="486" cy="184" r="92" fill="#f7ffe6" stroke="#1b2118" stroke-width="7" opacity=".88"/>
<g font-family="Courier New" fill="#11180f"><text x="414" y="170" font-size="30">WHARF</text><text x="414" y="207" font-size="30">HOU?E</text></g>
<path d="M552 250l82 72" stroke="#1b2118" stroke-width="18" stroke-linecap="round"/>
<g opacity=".28" fill="#fff"><ellipse cx="455" cy="137" rx="34" ry="12" transform="rotate(-33 455 137)"/></g>
</svg>
