<svg xmlns="http://www.w3.org/2000/svg" width="760" height="520" viewBox="0 0 760 520"><rect width="760" height="520" fill="#10131b"/><g stroke="#58617e" stroke-width="1" opacity=".55"><path d="M80 0v520M160 0v520M240 0v520M320 0v520M400 0v520M480 0v520M560 0v520M640 0v520M720 0v520"/><path d="M0 80h760M0 160h760M0 240h760M0 320h760M0 400h760M0 480h760"/></g><g fill="#f7edc6"><circle cx="604" cy="96" r="4"/><circle cx="536" cy="148" r="3"/><circle cx="455" cy="187" r="3"/><circle cx="378" cy="231" r="2.5"/><circle cx="315" cy="296" r="5"/><circle cx="271" cy="356" r="2"/><circle cx="184" cy="405" r="3"/><circle cx="136" cy="342" r="2"/><circle cx="676" cy="264" r="2"/><circle cx="613" cy="374" r="2.5"/><circle cx="482" cy="420" r="2"/><circle cx="88" cy="126" r="2"/></g><g fill="none" stroke="#f4d36b" stroke-width="2"><circle cx="315" cy="296" r="38"/><path d="M292 296h46M315 273v46"/><path d="M604 96L536 148L455 187L378 231L315 296" stroke-dasharray="6 6"/></g><g font-family="Courier New,monospace" font-size="18" fill="#f4d36b"><text x="28" y="38">FINDER CHART: HERCULES, M13 FIELD</text><text x="352" y="304">M13</text><text x="590" y="84">η Her</text><text x="112" y="494">north up / west right / pencil corrections 1979-06-22</text></g></svg>