<svg xmlns="http://www.w3.org/2000/svg" width="760" height="420" viewBox="0 0 760 420"><rect width="760" height="420" fill="#0b1019"/><g stroke="#38435f" opacity=".6"><path d="M0 70h760M0 140h760M0 210h760M0 280h760M0 350h760M95 0v420M190 0v420M285 0v420M380 0v420M475 0v420M570 0v420M665 0v420"/></g><g stroke="#f3d37a" stroke-width="3"><path d="M96 328L314 188"/><path d="M528 91L613 63"/><path d="M411 302L486 388"/><path d="M195 78L250 134"/></g><g fill="#f1e6c0"><circle cx="120" cy="78" r="2"/><circle cx="672" cy="342" r="3"/><circle cx="344" cy="112" r="2"/><circle cx="520" cy="240" r="2"/></g><g font-family="Courier New,monospace" font-size="17" fill="#f1e6c0"><text x="28" y="35">PERSEID WATCH CARD - limiting mag 5.1, lawn chair station</text><text x="316" y="186">23:48 EST train 2 sec</text><text x="506" y="86">00:17 silent</text><text x="410" y="294">00:42 green</text></g></svg>
