<svg xmlns="http://www.w3.org/2000/svg" width="650" height="360" viewBox="0 0 650 360"><rect width="650" height="360" fill="#f4edcf"/><circle cx="205" cy="170" r="118" fill="none" stroke="#334f55" stroke-width="8"/><circle cx="205" cy="170" r="73" fill="#d9e7e1" stroke="#334f55" stroke-width="3"/><g fill="none" stroke="#45686d" stroke-width="4"><path d="M100 120c45 20 95 20 140-18M112 225c42-26 91-28 138-5M145 82c20 45 50 69 98 82M165 272c25-48 63-75 113-82"/></g><g font-family="Courier New, monospace" fill="#243b3f"><text x="360" y="58" font-size="18">DETERGENT ACTION, AS DRAWN</text><text x="360" y="91" font-size="13">A. surfactant tail prefers oil</text><text x="360" y="117" font-size="13">B. phosphate softens hard water</text><text x="360" y="143" font-size="13">C. sodium perborate wakes above warm</text><text x="360" y="169" font-size="13">D. optical brightener clings to cotton</text><text x="360" y="215" font-size="13" fill="#9b2f25">DO NOT MIX chlorine bleach + ammonia.</text><text x="360" y="241" font-size="13">machine-room note, pencil, no signature</text><text x="45" y="328" font-size="12">Ring stain copied from washer 08 enamel, enlarged 140%.</text></g><circle cx="164" cy="143" r="9" fill="#bf3a30"/><circle cx="245" cy="196" r="7" fill="#bf3a30"/><circle cx="193" cy="236" r="6" fill="#bf3a30"/></svg>
