<svg xmlns="http://www.w3.org/2000/svg" width="720" height="380" viewBox="0 0 720 380"><rect width="720" height="380" fill="#f5edcf"/><g font-family="Courier New, monospace" fill="#263f43"><text x="42" y="40" font-size="20">DRYER LINT TAXONOMY DRAWER</text></g><g transform="translate(40 65)" stroke="#263f43" stroke-width="2"><rect width="130" height="120" fill="#e1dfd1"/><circle cx="65" cy="62" r="36" fill="#b8bec0" opacity=".9"/><text x="14" y="105" font-family="Courier New" font-size="12">gray domestic</text><rect x="158" width="130" height="120" fill="#e1dfd1"/><circle cx="223" cy="62" r="35" fill="#5079a1" opacity=".8"/><text x="174" y="105" font-family="Courier New" font-size="12">blue towel bloom</text><rect x="316" width="130" height="120" fill="#e1dfd1"/><circle cx="381" cy="62" r="34" fill="#c47b63" opacity=".85"/><text x="332" y="105" font-family="Courier New" font-size="12">rust flannel</text><rect x="474" width="130" height="120" fill="#e1dfd1"/><circle cx="539" cy="62" r="33" fill="#eee7db" opacity=".95"/><text x="492" y="105" font-family="Courier New" font-size="12">white cotton fog</text><rect y="150" width="130" height="120" fill="#e1dfd1"/><circle cx="65" cy="212" r="35" fill="#353029" opacity=".83"/><text x="15" y="255" font-family="Courier New" font-size="12">synthetic pepper</text><rect x="158" y="150" width="130" height="120" fill="#e1dfd1"/><circle cx="223" cy="212" r="35" fill="#9c7765" opacity=".84"/><text x="172" y="255" font-family="Courier New" font-size="12">blanket tan</text><rect x="316" y="150" width="130" height="120" fill="#e1dfd1"/><circle cx="381" cy="212" r="35" fill="#cab04c" opacity=".84"/><text x="336" y="255" font-family="Courier New" font-size="12">pollen yellow</text><rect x="474" y="150" width="130" height="120" fill="#e1dfd1"/><circle cx="539" cy="212" r="35" fill="#808080" opacity=".5"/><text x="489" y="255" font-family="Courier New" font-size="12">unknown blend</text></g></svg>
