<svg xmlns="http://www.w3.org/2000/svg" width="760" height="300" viewBox="0 0 760 300"><rect width="760" height="300" fill="#e9e0bd"/><g font-family="Courier New, monospace" stroke="#263f43" stroke-width="3"><rect x="25" y="28" width="210" height="112" fill="#fff7d6"/><text x="44" y="58" font-size="20" fill="#263f43">WASHER 03</text><text x="44" y="86" font-size="13" fill="#263f43">HOT: towels only</text><path d="M44 102h160"/><text x="44" y="125" font-size="12" fill="#9b2f25">DO NOT FORCE COIN SLIDE</text><rect x="274" y="22" width="190" height="126" fill="#dce8df"/><text x="293" y="55" font-size="18" fill="#263f43">EXTRACTOR</text><text x="293" y="82" font-size="12" fill="#263f43">balanced loads under 18 lb</text><circle cx="428" cy="112" r="18" fill="#c44737"/><text x="288" y="118" font-size="12" fill="#263f43">RED LAMP = WAIT</text><rect x="505" y="35" width="220" height="96" fill="#fff7d6"/><text x="523" y="64" font-size="18" fill="#263f43">DRYER 12</text><text x="523" y="92" font-size="12" fill="#263f43">lint screen behind lower lip</text><text x="523" y="116" font-size="12" fill="#9b2f25">NO RUG BACKING</text><rect x="58" y="178" width="274" height="78" fill="#f7d9c0"/><text x="77" y="210" font-size="17" fill="#263f43">LAST RINSE IS NOT A SINK</text><text x="77" y="234" font-size="12" fill="#263f43">posted after blue-ink incident</text><rect x="388" y="170" width="284" height="90" fill="#fff7d6"/><text x="410" y="202" font-size="17" fill="#263f43">SOAP SLOT TAKES POWDER</text><text x="410" y="228" font-size="12" fill="#263f43">liquid cup lives on chain</text></g><g stroke="#8c7d5b" stroke-width="2"><path d="M18 18l16 16M235 20l-10 18M500 25l15 18M724 26l-18 14M53 255l18 18M672 259l-20 16"/></g></svg>
