<svg xmlns="http://www.w3.org/2000/svg" width="720" height="420" viewBox="0 0 720 420"><rect width="720" height="420" fill="#c09355"/><rect x="24" y="22" width="672" height="376" fill="#b78449" stroke="#3b2815" stroke-width="8"/><g font-family="Georgia, serif" stroke="#2b2117"><rect x="55" y="58" width="150" height="120" fill="#fff2c8" transform="rotate(-3 130 118)"/><text x="75" y="91" font-size="18">black ankle</text><text x="75" y="119" font-size="13">found in 4B</text><path d="M104 137c31 8 44-12 51-31" fill="none" stroke-width="5"/><circle cx="188" cy="70" r="6" fill="#c73830"/><rect x="245" y="47" width="174" height="135" fill="#e6f0de" transform="rotate(2 332 114)"/><text x="266" y="82" font-size="17">infant sock</text><text x="266" y="110" font-size="13">yellow rib, no pair</text><path d="M306 136c30 5 48-8 58-28" fill="none" stroke-width="5"/><circle cx="400" cy="61" r="6" fill="#2d6b73"/><rect x="468" y="62" width="170" height="116" fill="#fff2c8" transform="rotate(-1 553 120)"/><text x="490" y="95" font-size="17">gray wool?</text><text x="490" y="122" font-size="13">smells like cedar</text><path d="M532 147c35 2 45-10 55-27" fill="none" stroke-width="5"/><circle cx="622" cy="75" r="6" fill="#c73830"/><rect x="86" y="228" width="205" height="112" fill="#f7d7c6" transform="rotate(1 188 284)"/><text x="107" y="260" font-size="17">board rule:</text><text x="107" y="288" font-size="13">claim with description</text><text x="107" y="310" font-size="13">not with confidence</text><rect x="374" y="226" width="220" height="118" fill="#e6f0de" transform="rotate(-2 484 285)"/><text x="394" y="258" font-size="17">mystery fabric tube</text><text x="394" y="285" font-size="13">not sock / maybe sleeve</text><text x="394" y="309" font-size="13">kept because it insists</text></g></svg>
