<svg xmlns="http://www.w3.org/2000/svg" width="720" height="480" viewBox="0 0 720 480">
<title>hand drawn culvert route map</title>
<rect width="720" height="480" fill="#d9ceb0"/>
<filter id="w"><feTurbulence baseFrequency="0.018" numOctaves="3" seed="7"/><feColorMatrix type="saturate" values="0.15"/><feBlend in="SourceGraphic" mode="multiply"/></filter>
<g filter="url(#w)"><rect x="22" y="22" width="676" height="436" fill="none" stroke="#413927" stroke-width="5"/><path d="M64 122 C170 88 242 92 336 116 S526 178 650 142" fill="none" stroke="#48727d" stroke-width="24" opacity=".75"/><path d="M59 124 C170 91 245 96 336 119 S522 180 656 144" fill="none" stroke="#14272d" stroke-width="2" stroke-dasharray="10 9"/><path d="M100 332 L628 315" stroke="#7b482a" stroke-width="14"/><path d="M102 335 L628 318" stroke="#21170f" stroke-width="2" stroke-dasharray="7 8"/><path d="M174 84 L216 396M318 100 L348 387M482 128 L514 358" stroke="#4e4b3a" stroke-width="5"/><g font-family="Courier New, monospace" font-size="19" fill="#221b12"><text x="73" y="62">WARD 4 DRAINAGE PLATE: SHEET D-19</text><text x="86" y="365">brick trunk (1889), drops 1.7 ft</text><text x="382" y="103" transform="rotate(13 382 103)">Blue String Branch</text><text x="219" y="210">C-7</text><text x="367" y="239">C-8</text><text x="520" y="260">C-9</text></g><g fill="#f4e8c6" stroke="#15120c" stroke-width="3"><circle cx="209" cy="203" r="18"/><circle cx="358" cy="236" r="18"/><circle cx="509" cy="257" r="18"/></g><g stroke="#b3261e" stroke-width="3"><path d="M201 192 l18 22M219 192 l-18 22"/><path d="M500 244 l20 25M520 244 l-20 25"/></g></g>
</svg>
