<svg xmlns="http://www.w3.org/2000/svg" width="680" height="470" viewBox="0 0 680 470">
<title>basement wall flood marks</title>
<rect width="680" height="470" fill="#b9b09d"/>
<g stroke="#8f8676" stroke-width="3"><path d="M0 92h680M0 184h680M0 276h680M0 368h680"/><path d="M106 0v470M222 0v470M338 0v470M454 0v470M570 0v470"/></g>
<g stroke="#365e68" stroke-width="4" fill="none" opacity=".8"><path d="M48 142 C135 133 196 160 284 145 S446 128 620 150"/><path d="M50 251 C168 244 224 271 326 256 S488 236 636 264"/><path d="M42 334 C190 324 336 361 632 330"/></g>
<g font-family="Courier New, monospace" fill="#241d16"><text x="64" y="126">AUG 19 1938 - oil smell at second riser</text><text x="72" y="235">MAY 03 1956 - frogs in coal bin</text><text x="78" y="318">APR 12 1979 - cabinet drawers floated</text><text x="480" y="408" font-size="20">NO PAINT BELOW THIS LINE</text></g>
<path d="M28 404h604" stroke="#4d2d20" stroke-width="12"/><g fill="#2b261f"><circle cx="70" cy="66" r="6"/><circle cx="582" cy="213" r="4"/><circle cx="405" cy="394" r="5"/></g>
</svg>
