<svg xmlns="http://www.w3.org/2000/svg" width="620" height="430" viewBox="0 0 620 430">
<rect width="620" height="430" fill="#6f6c5a"/><rect x="40" y="30" width="540" height="370" fill="#7d7a66" stroke="#2b2a24" stroke-width="5"/>
<g font-family="monospace" fill="#1d1c18"><text x="74" y="82" font-size="28" transform="rotate(-5 74 82)">CALL RITA AFTER 9</text><text x="102" y="146" font-size="19" transform="rotate(3 102 146)">coin return knows your name</text><text x="333" y="121" font-size="22" transform="rotate(8 333 121)">NO DIAL TONE / STILL LISTEN</text><text x="88" y="246" font-size="18">312-555-0188 = weather report</text><text x="284" y="304" font-size="31" transform="rotate(-9 284 304)">OPERATOR?</text><text x="105" y="345" font-size="15">do not tape roses to receiver again</text></g>
<g stroke="#d9c46e" stroke-width="4" fill="none"><path d="M420 212c-20-36-68-28-70 9-2 44 71 56 92 13 13-26-4-52-25-57"/><path d="M152 178l42 30 44-41"/></g>
<g fill="#342f28"><circle cx="78" cy="112" r="5"/><circle cx="514" cy="352" r="5"/><circle cx="483" cy="67" r="4"/></g>
</svg>
