<svg xmlns="http://www.w3.org/2000/svg" width="760" height="250" viewBox="0 0 760 250">
<rect width="760" height="250" fill="#202018"/>
<g transform="translate(36 36)"><rect width="200" height="124" rx="9" fill="#e6d09a" stroke="#111" stroke-width="3"/><text x="18" y="32" font-family="monospace" font-size="17" fill="#111">LARK ROUTE CARD</text><text x="18" y="61" font-family="monospace" font-size="13" fill="#111">PIN: rubbed away</text><path d="M18 89h164" stroke="#111" stroke-width="4"/><circle cx="164" cy="100" r="13" fill="#8b2e2b"/></g>
<g transform="translate(280 61) rotate(-4)"><rect width="200" height="124" rx="9" fill="#9eb9c8" stroke="#111" stroke-width="3"/><text x="18" y="32" font-family="monospace" font-size="17" fill="#111">MOTH 800</text><text x="18" y="61" font-family="monospace" font-size="13" fill="#111">valid until handset cools</text><path d="M28 92c34-44 62-44 96 0s62 44 82 0" fill="none" stroke="#111" stroke-width="3"/></g>
<g transform="translate(524 39) rotate(3)"><rect width="200" height="124" rx="9" fill="#d18462" stroke="#111" stroke-width="3"/><text x="18" y="32" font-family="monospace" font-size="17" fill="#111">CICADA SAVER</text><text x="18" y="61" font-family="monospace" font-size="13" fill="#111">12 minutes / no refunds</text><rect x="18" y="82" width="160" height="18" fill="#111"/><g fill="#d18462"><rect x="25" y="85" width="5" height="12"/><rect x="38" y="85" width="3" height="12"/><rect x="54" y="85" width="8" height="12"/><rect x="75" y="85" width="4" height="12"/><rect x="97" y="85" width="7" height="12"/><rect x="132" y="85" width="3" height="12"/></g></g>
<text x="38" y="220" font-family="monospace" font-size="13" fill="#dacb9a">found behind directory binder: three cards, all expired, all warm on one corner</text>
</svg>
