<svg xmlns="http://www.w3.org/2000/svg" viewBox="0 0 620 330" role="img" aria-labelledby="t d">
<title id="t">counter copier with taped notes</title><desc id="d">Handmade black and blue line drawing of a copy machine with paper tray, glass, taped notices, and small toner smudges.</desc>
<rect width="620" height="330" fill="#f7f1df"/>
<g fill="none" stroke="#182027" stroke-width="5" stroke-linecap="round" stroke-linejoin="round">
<path d="M68 131h398l72 74v84H92l-24-158z" fill="#dbe1df"/>
<path d="M105 88h319l42 43H69z" fill="#f4f8f5"/>
<path d="M127 105h224l22 16H109z" fill="#9fb7cc"/>
<path d="M171 204h282M188 232h238M204 260h188"/>
<path d="M469 145h52l32 34h-61z" fill="#222"/>
<circle cx="505" cy="165" r="7" fill="#63c261"/><circle cx="532" cy="174" r="5" fill="#e2624b"/>
<path d="M86 284c57 21 189 25 278 15 50-5 92-4 153 12" stroke="#777" stroke-width="2"/>
</g>
<g font-family="Courier New, monospace" font-size="18" fill="#1b2022">
<rect x="390" y="39" width="131" height="66" fill="#fff2a8" stroke="#222" stroke-width="3" transform="rotate(3 455 72)"/>
<text x="406" y="66" transform="rotate(3 455 72)">NO CREDIT</text><text x="406" y="88" transform="rotate(3 455 72)">AFTER 9PM</text>
<rect x="41" y="30" width="98" height="77" fill="#fff" stroke="#222" stroke-width="3" transform="rotate(-5 90 68)"/>
<text x="56" y="61" transform="rotate(-5 90 68)">COPY</text><text x="56" y="82" transform="rotate(-5 90 68)">KEYS?</text>
</g>
<g fill="#111" opacity=".18"><ellipse cx="157" cy="289" rx="18" ry="5"/><ellipse cx="315" cy="293" rx="9" ry="3"/><ellipse cx="447" cy="300" rx="15" ry="4"/></g>
</svg>
