<svg xmlns="http://www.w3.org/2000/svg" viewBox="0 0 640 360" role="img" aria-labelledby="t d">
<title id="t">enlargement chart and copy ruler</title><desc id="d">Photocopy enlargement guide with misregistered lines, handwritten percentages, and crop marks.</desc>
<rect width="640" height="360" fill="#fbf7e7"/>
<path d="M70 56h500v236H70z" fill="#fff" stroke="#111" stroke-width="4"/>
<g stroke="#1e384d" stroke-width="2" opacity=".65"><path d="M110 56v236M150 56v236M190 56v236M230 56v236M270 56v236M310 56v236M350 56v236M390 56v236M430 56v236M470 56v236M510 56v236"/><path d="M70 96h500M70 136h500M70 176h500M70 216h500M70 256h500"/></g>
<g fill="none" stroke="#111" stroke-width="5"><rect x="118" y="104" width="121" height="78"/><rect x="320" y="91" width="170" height="110" stroke-dasharray="12 9"/><path d="M118 230h372M118 230v28M490 230v28"/></g>
<g font-family="Courier New, monospace" fill="#111"><text x="84" y="35" font-size="24">ENLARGEMENT CARD — KEEP BY GLASS</text><text x="132" y="276" font-size="20">64%</text><text x="350" y="226" font-size="20">141% legal → ledger</text><text x="85" y="326" font-size="16">If face becomes moon: reduce by one apology.</text></g>
<g stroke="#c2392f" stroke-width="3"><path d="M38 56h42M70 24v42M560 292h42M570 282v42"/><circle cx="528" cy="79" r="17" fill="none"/><path d="M515 79h26M528 66v26"/></g>
</svg>
