<svg xmlns="http://www.w3.org/2000/svg" viewBox="0 0 620 360" role="img" aria-labelledby="t d">
<title id="t">toner ghost samples</title><desc id="d">Three pale smudged ghosts emerging from photocopied paper grain, labeled as maintenance samples.</desc>
<defs><filter id="blur"><feGaussianBlur stdDeviation="2.4"/></filter></defs>
<rect width="620" height="360" fill="#e9e4d2"/>
<g opacity=".25" stroke="#111"><path d="M0 44h620M0 91h620M0 148h620M0 231h620M0 303h620"/><path d="M52 0v360M188 0v360M402 0v360M551 0v360"/></g>
<g fill="#4a4a4a" opacity=".28" filter="url(#blur)"><path d="M104 235c-38-79 10-145 59-119 39 21 49 73 18 126-19-20-32 19-51-1-15-16-21 13-26-6z"/><path d="M282 248c-58-91 5-172 70-133 41 25 45 86 4 137-23-32-38 21-53-2-14-23-21 15-21-2z"/><path d="M467 230c-32-61-7-123 45-110 51 12 59 87 17 127-17-20-29 17-44 0-11-12-16 4-18-17z"/></g>
<g fill="#111" font-family="Courier New, monospace"><text x="48" y="42" font-size="22">TONER GHOST SAMPLE SHEET</text><text x="90" y="292" font-size="16">A: receipt clerk</text><text x="272" y="292" font-size="16">B: upstairs copy</text><text x="450" y="292" font-size="16">C: not repeatable</text></g>
<g fill="#111" opacity=".2"><circle cx="86" cy="117" r="4"/><circle cx="232" cy="84" r="2"/><circle cx="427" cy="207" r="5"/><circle cx="562" cy="155" r="3"/></g>
</svg>
