<svg xmlns="http://www.w3.org/2000/svg" width="700" height="460" viewBox="0 0 700 460">
<rect width="700" height="460" fill="#30342f"/><g transform="translate(38 35)"><rect width="280" height="175" fill="#e8dcc0" stroke="#17120b" stroke-width="4"/><text x="18" y="32" font-family="Georgia,serif" font-size="24" fill="#2b2115">PIGEON POST No. 4</text><path d="M90 82 c20 -40 76 -28 88 5 c35 -8 58 12 63 36 c-45 10 -88 4 -132 -16 c-12 16 -36 28 -70 32 c12 -22 28 -39 51 -57z" fill="#9aa3a0" stroke="#1a1711" stroke-width="3"/><circle cx="148" cy="75" r="5" fill="#111"/><text x="24" y="156" font-family="Courier New,monospace" font-size="13" fill="#5b1d12">message: bring button twine</text></g>
<g transform="translate(380 55) rotate(3)"><rect width="245" height="150" fill="#efe5cf" stroke="#17120b" stroke-width="4"/><text x="16" y="32" font-family="Courier New,monospace" font-size="17" fill="#2b2115">UNDELIVERED</text><path d="M30 92 h178" stroke="#2b2115" stroke-width="2"/><path d="M148 44 h62M148 66 h62M148 88 h62" stroke="#2b2115"/><circle cx="55" cy="62" r="19" fill="none" stroke="#6b1e15" stroke-width="4"/><text x="26" y="130" font-family="Georgia,serif" font-size="18" fill="#6b1e15">roof coop, south hinge</text></g>
<g transform="translate(180 250) rotate(-2)"><rect width="330" height="150" fill="#dfd0aa" stroke="#17120b" stroke-width="4"/><text x="18" y="34" font-family="Georgia,serif" font-size="25" fill="#2b2115">route card: Blue String</text><path d="M32 92 C88 40 145 118 204 73 S273 78 300 36" fill="none" stroke="#275a75" stroke-width="8"/><g fill="#6b1e15"><circle cx="32" cy="92" r="7"/><circle cx="204" cy="73" r="7"/><circle cx="300" cy="36" r="7"/></g><text x="26" y="128" font-family="Courier New,monospace" font-size="14">Stops: chimney / bakery sign / lint county</text></g>
</svg>
