<svg xmlns="http://www.w3.org/2000/svg" width="420" height="260" viewBox="0 0 420 260">
<rect width="420" height="260" fill="#050816"/>
<rect x="18" y="18" width="384" height="224" fill="none" stroke="#7ee7ff" stroke-width="3" stroke-dasharray="8 6"/>
<path d="M210 58l-54 160h108L210 58Z" fill="none" stroke="#7ee7ff" stroke-width="5"/>
<path d="M178 134h64M166 170h88M190 98h40" stroke="#ff71d9" stroke-width="3"/>
<circle cx="210" cy="55" r="10" fill="#ffef7e"/>
<g fill="none" stroke="#ffef7e" stroke-width="2" opacity=".75"><path d="M184 52c-26 10-38 29-42 55"/><path d="M236 52c26 10 38 29 42 55"/><path d="M156 42c-46 25-68 58-72 103"/><path d="M264 42c46 25 68 58 72 103"/></g>
<text x="210" y="232" font-family="monospace" font-size="16" text-anchor="middle" fill="#7ee7ff">MIDNIGHT BAND: 88.3 / DO NOT HUM BACK</text>
</svg>
