<svg xmlns="http://www.w3.org/2000/svg" width="320" height="460" viewBox="0 0 320 460">
<rect width="320" height="460" fill="#7b0909"/>
<rect x="18" y="18" width="284" height="424" fill="#f4d7c8" stroke="#2b0000" stroke-width="6"/>
<rect x="36" y="36" width="248" height="78" fill="#b11212"/>
<text x="160" y="70" font-family="Georgia" font-size="28" text-anchor="middle" fill="#ffe7b2">REDGARDEN</text>
<text x="160" y="98" font-family="monospace" font-size="13" text-anchor="middle" fill="#ffe7b2">LISTENING TOMATO SEED</text>
<circle cx="160" cy="220" r="82" fill="#510000" stroke="#b11212" stroke-width="8"/>
<path d="M160 143 C130 178 117 214 124 252 C151 246 169 249 196 264 C211 224 200 176 160 143Z" fill="#d32222"/>
<path d="M160 143 C168 119 184 112 208 116 C188 125 174 137 160 143Z" fill="#315d20"/>
<g fill="none" stroke="#ffe7b2" stroke-width="2" opacity=".8"><path d="M72 338h176"/><path d="M72 362h176"/><path d="M72 386h176"/></g>
<text x="160" y="333" font-family="monospace" font-size="12" text-anchor="middle" fill="#2b0000">PLANT NEAR STATIC RADIO</text>
<text x="160" y="357" font-family="monospace" font-size="12" text-anchor="middle" fill="#2b0000">DO NOT DISCUSS RENT</text>
<text x="160" y="421" font-family="Georgia" font-size="16" text-anchor="middle" fill="#2b0000">Packed by hand after rain</text>
</svg>
